<svg viewBox="0 0 32 32" fill="none" xmlns="http://www.w3.org/2000/svg">
  <!-- Gold circle background -->
  <circle cx="16" cy="16" r="15" fill="#c9a84c"/>

  <!-- Comedy mask (left, happy) -->
  <path d="M5.5 14.5C5.5 9.5 8 6.5 11.5 6.5C15 6.5 16.5 9.5 16.5 14.5C16.5 19.5 14.5 22 11.5 22C8.5 22 5.5 19.5 5.5 14.5Z" fill="#1a1a2e"/>
  <!-- Comedy eyes -->
  <circle cx="9" cy="12" r="1.3" fill="#c9a84c"/>
  <circle cx="13.5" cy="12" r="1.3" fill="#c9a84c"/>
  <!-- Comedy eyebrows -->
  <path d="M7.5 10C8 9.2 8.8 8.8 9.5 9" stroke="#c9a84c" stroke-width="0.8" stroke-linecap="round"/>
  <path d="M12.5 9C13.2 8.8 14 9.2 14.5 10" stroke="#c9a84c" stroke-width="0.8" stroke-linecap="round"/>
  <!-- Comedy smile -->
  <path d="M8 15.5C8 15.5 9.5 18 11.5 18C13.5 18 15 15.5 15 15.5" stroke="#c9a84c" stroke-width="1" stroke-linecap="round" fill="none"/>

  <!-- Tragedy mask (right, sad, slightly behind) -->
  <path d="M15.5 15.5C15.5 10.5 18 7.5 21.5 7.5C25 7.5 26.5 10.5 26.5 15.5C26.5 20.5 24.5 23 21.5 23C18.5 23 15.5 20.5 15.5 15.5Z" fill="#1a1a2e"/>
  <!-- Tragedy eyes -->
  <circle cx="19.5" cy="13.5" r="1.2" fill="#c9a84c"/>
  <circle cx="23.5" cy="13.5" r="1.2" fill="#c9a84c"/>
  <!-- Tragedy eyebrows (sad, angled down) -->
  <path d="M18 11.5C18.5 12.2 19.2 12.5 19.8 12.3" stroke="#c9a84c" stroke-width="0.8" stroke-linecap="round"/>
  <path d="M23.2 12.3C23.8 12.5 24.5 12.2 25 11.5" stroke="#c9a84c" stroke-width="0.8" stroke-linecap="round"/>
  <!-- Tragedy frown -->
  <path d="M18.5 18C18.5 18 19.5 16 21.5 16C23.5 16 24.5 18 24.5 18" stroke="#c9a84c" stroke-width="1" stroke-linecap="round" fill="none"/>
  <!-- Tragedy tear -->
  <ellipse cx="25" cy="16.5" rx="0.5" ry="0.8" fill="#c9a84c" opacity="0.7"/>
</svg>
