<svg viewBox="0 0 32 32" fill="none" xmlns="http://www.w3.org/2000/svg">
  <!-- Comedy mask (left) -->
  <ellipse cx="11" cy="14" rx="7" ry="8" fill="#1a1a2e"/>
  <path d="M7 11.5c0 0 1.5-3 4-3s4 3 4 3" stroke="#c9a84c" stroke-width="1.5" fill="none" stroke-linecap="round"/>
  <ellipse cx="9" cy="12.5" rx="1.2" ry="1.4" fill="#c9a84c"/>
  <ellipse cx="13" cy="12.5" rx="1.2" ry="1.4" fill="#c9a84c"/>
  <path d="M8 16c0 0 1.5 2.5 3 2.5s3-2.5 3-2.5" stroke="#c9a84c" stroke-width="1" fill="none" stroke-linecap="round"/>

  <!-- Tragedy mask (right, tilted) -->
  <ellipse cx="22" cy="15" rx="6.5" ry="7.5" fill="#1a1a2e" transform="rotate(-10 22 15)"/>
  <path d="M18.5 12c0 0 1-2.5 3.5-2.5s3.5 2.5 3.5 2.5" stroke="#c9a84c" stroke-width="1.3" fill="none" stroke-linecap="round"/>
  <ellipse cx="20.5" cy="13" rx="1" ry="1.2" fill="#c9a84c"/>
  <ellipse cx="23.5" cy="12.8" rx="1" ry="1.2" fill="#c9a84c"/>
  <path d="M19.5 17c0 0 1.2-1.5 2.5-1.5s2.5 1.5 2.5 1.5" stroke="#c9a84c" stroke-width="0.9" fill="none" stroke-linecap="round"/>

  <!-- Tear on tragedy mask -->
  <ellipse cx="24.5" cy="15.5" rx="0.6" ry="0.9" fill="#c9a84c" opacity="0.6"/>
</svg>
